<svg xmlns="http://www.w3.org/2000/svg" viewBox="0 0 512 512">
  <defs>
    <linearGradient id="bg" x1="0%" y1="0%" x2="100%" y2="100%">
      <stop offset="0%" style="stop-color:#3A3A3C"/>
      <stop offset="50%" style="stop-color:#1D1D1F"/>
      <stop offset="100%" style="stop-color:#000000"/>
    </linearGradient>
    <linearGradient id="lens" x1="0%" y1="0%" x2="100%" y2="100%">
      <stop offset="0%" style="stop-color:#0A84FF"/>
      <stop offset="100%" style="stop-color:#5E5CE6"/>
    </linearGradient>
  </defs>
  <!-- 背景 -->
  <rect width="512" height="512" rx="100" fill="url(#bg)"/>
  <!-- 相機機身 -->
  <rect x="96" y="156" width="320" height="240" rx="24" fill="#2D2D2F" stroke="#4A4A4C" stroke-width="4"/>
  <!-- 鏡頭外環 -->
  <circle cx="256" cy="276" r="90" fill="#1A1A1C" stroke="#4A4A4C" stroke-width="6"/>
  <!-- 鏡頭內環 -->
  <circle cx="256" cy="276" r="70" fill="url(#lens)"/>
  <!-- 鏡頭反光 -->
  <circle cx="236" cy="256" r="20" fill="rgba(255,255,255,0.3)"/>
  <!-- 閃光燈 -->
  <rect x="320" y="176" width="60" height="40" rx="8" fill="#FFD60A"/>
  <!-- 快門按鈕 -->
  <circle cx="136" cy="136" r="28" fill="#FF453A" stroke="#FFFFFF" stroke-width="4"/>
  <!-- AI 標籤 -->
  <rect x="156" y="340" width="60" height="28" rx="6" fill="#0A84FF"/>
  <text x="186" y="360" font-family="Arial" font-size="18" font-weight="bold" fill="white" text-anchor="middle">AI</text>
  <!-- 雲端圖示 -->
  <g transform="translate(280, 336)">
    <path d="M50 28c0-11-9-20-20-20-8 0-15 5-18 12-2-1-4-2-7-2-8 0-15 7-15 15 0 1 0 2 0 3-6 2-10 8-10 14 0 9 7 16 16 16h50c9 0 16-7 16-16 0-7-5-13-12-15v-7z" fill="#34C759"/>
  </g>
</svg>
